<mxfile host="65bd71144e">
    <diagram id="vD_s7VNCT_OuTAs0ynJb" name="Page-1">
        <mxGraphModel dx="564" dy="470" grid="1" gridSize="10" guides="1" tooltips="1" connect="1" arrows="1" fold="1" page="1" pageScale="1" pageWidth="827" pageHeight="1169" math="0" shadow="0">
            <root>
                <mxCell id="0"/>
                <mxCell id="1" parent="0"/>
                <mxCell id="4" value="" style="edgeStyle=none;html=1;" edge="1" parent="1" source="2" target="3">
                    <mxGeometry relative="1" as="geometry"/>
                </mxCell>
                <mxCell id="2" value="start" style="ellipse;whiteSpace=wrap;html=1;" vertex="1" parent="1">
                    <mxGeometry x="90" y="20" width="120" height="50" as="geometry"/>
                </mxCell>
                <mxCell id="6" value="" style="edgeStyle=none;html=1;" edge="1" parent="1" source="3" target="5">
                    <mxGeometry relative="1" as="geometry"/>
                </mxCell>
                <mxCell id="3" value="input A,B" style="shape=parallelogram;perimeter=parallelogramPerimeter;whiteSpace=wrap;html=1;fixedSize=1;" vertex="1" parent="1">
                    <mxGeometry x="90" y="110" width="120" height="30" as="geometry"/>
                </mxCell>
                <mxCell id="8" value="" style="edgeStyle=none;html=1;" edge="1" parent="1" source="5" target="7">
                    <mxGeometry relative="1" as="geometry"/>
                </mxCell>
                <mxCell id="5" value="input N" style="shape=parallelogram;perimeter=parallelogramPerimeter;whiteSpace=wrap;html=1;fixedSize=1;" vertex="1" parent="1">
                    <mxGeometry x="90" y="180" width="120" height="40" as="geometry"/>
                </mxCell>
                <mxCell id="10" value="" style="edgeStyle=none;html=1;" edge="1" parent="1" source="7" target="9">
                    <mxGeometry relative="1" as="geometry"/>
                </mxCell>
                <mxCell id="7" value="index = 0&lt;br&gt;sum =&amp;nbsp; 0" style="whiteSpace=wrap;html=1;" vertex="1" parent="1">
                    <mxGeometry x="90" y="270" width="120" height="60" as="geometry"/>
                </mxCell>
                <mxCell id="12" value="" style="edgeStyle=none;html=1;" edge="1" parent="1" source="9" target="11">
                    <mxGeometry relative="1" as="geometry"/>
                </mxCell>
                <mxCell id="19" value="" style="edgeStyle=orthogonalEdgeStyle;html=1;" edge="1" parent="1" source="9" target="18">
                    <mxGeometry relative="1" as="geometry"/>
                </mxCell>
                <mxCell id="9" value="index &amp;lt; N" style="rhombus;whiteSpace=wrap;html=1;" vertex="1" parent="1">
                    <mxGeometry x="85" y="400" width="130" height="80" as="geometry"/>
                </mxCell>
                <mxCell id="15" value="" style="edgeStyle=none;html=1;" edge="1" parent="1" source="11" target="14">
                    <mxGeometry relative="1" as="geometry"/>
                </mxCell>
                <mxCell id="11" value="sum = sum + A[index] * B[index]" style="whiteSpace=wrap;html=1;" vertex="1" parent="1">
                    <mxGeometry x="80" y="540" width="140" height="60" as="geometry"/>
                </mxCell>
                <mxCell id="13" value="yes" style="text;html=1;align=center;verticalAlign=middle;resizable=0;points=[];autosize=1;strokeColor=none;fillColor=none;" vertex="1" parent="1">
                    <mxGeometry x="160" y="500" width="30" height="20" as="geometry"/>
                </mxCell>
                <mxCell id="17" style="edgeStyle=orthogonalEdgeStyle;html=1;exitX=0.5;exitY=1;exitDx=0;exitDy=0;entryX=0;entryY=0.5;entryDx=0;entryDy=0;" edge="1" parent="1" source="14" target="9">
                    <mxGeometry relative="1" as="geometry">
                        <mxPoint x="20" y="440" as="targetPoint"/>
                        <Array as="points">
                            <mxPoint x="150" y="720"/>
                            <mxPoint x="10" y="720"/>
                            <mxPoint x="10" y="440"/>
                        </Array>
                    </mxGeometry>
                </mxCell>
                <mxCell id="14" value="index = index + 1" style="whiteSpace=wrap;html=1;" vertex="1" parent="1">
                    <mxGeometry x="90" y="650" width="120" height="60" as="geometry"/>
                </mxCell>
                <mxCell id="21" value="" style="edgeStyle=orthogonalEdgeStyle;html=1;" edge="1" parent="1" source="18" target="20">
                    <mxGeometry relative="1" as="geometry"/>
                </mxCell>
                <mxCell id="18" value="output sum" style="shape=parallelogram;perimeter=parallelogramPerimeter;whiteSpace=wrap;html=1;fixedSize=1;" vertex="1" parent="1">
                    <mxGeometry x="260" y="410" width="120" height="60" as="geometry"/>
                </mxCell>
                <mxCell id="20" value="finish" style="ellipse;whiteSpace=wrap;html=1;" vertex="1" parent="1">
                    <mxGeometry x="460" y="410" width="120" height="60" as="geometry"/>
                </mxCell>
                <mxCell id="22" value="no" style="text;html=1;align=center;verticalAlign=middle;resizable=0;points=[];autosize=1;strokeColor=none;fillColor=none;" vertex="1" parent="1">
                    <mxGeometry x="220" y="420" width="30" height="20" as="geometry"/>
                </mxCell>
            </root>
        </mxGraphModel>
    </diagram>
</mxfile>